<svg xmlns="http://www.w3.org/2000/svg">
  <symbol viewBox="0 0 20 20" id="cog"><path fill-rule="evenodd" d="M11.5 3.2c-.4-1.6-2.6-1.6-3 0a1.5 1.5 0 01-2.3 1c-1.3-1-3 .7-2 2 .5 1 0 2-1 2.3-1.6.4-1.6 2.6 0 3a1.5 1.5 0 011 2.3c-1 1.3.7 3 2 2a1.5 1.5 0 012.3 1c.4 1.6 2.6 1.6 3 0a1.5 1.5 0 012.3-1c1.3 1 3-.7 2-2a1.5 1.5 0 011-2.3c1.6-.4 1.6-2.6 0-3a1.5 1.5 0 01-1-2.3c1-1.3-.7-3-2-2a1.5 1.5 0 01-2.3-1zM10 13a3 3 0 100-6 3 3 0 000 6z" clip-rule="evenodd"/></symbol>
  <symbol viewBox="0 0 20 20" id="library"><path fill-rule="evenodd" d="M10.496 2.132a1 1 0 00-.992 0l-7 4A1 1 0 003 8v7a1 1 0 100 2h14a1 1 0 100-2V8a1 1 0 00.496-1.868l-7-4zM6 9a1 1 0 00-1 1v3a1 1 0 102 0v-3a1 1 0 00-1-1zm3 1a1 1 0 012 0v3a1 1 0 11-2 0v-3zm5-1a1 1 0 00-1 1v3a1 1 0 102 0v-3a1 1 0 00-1-1z" clip-rule="evenodd"/></symbol>
  <symbol viewBox="0 0 20 20" id="light"><path d="M11 3a1 1 0 10-2 0v1a1 1 0 102 0V3zm4.7 2.8a1 1 0 00-1.5-1.5l-.7.8A1 1 0 0015 6.4l.8-.7zM18 10a1 1 0 01-1 1h-1a1 1 0 110-2h1a1 1 0 011 1zM5 6.5A1 1 0 106.6 5l-.7-.7a1 1 0 00-1.5 1.5l.8.7zM5 10a1 1 0 01-1 1H3a1 1 0 110-2h1a1 1 0 011 1zm3 6v-1h4v1a2 2 0 11-4 0zm4-2c0-.3.2-.6.5-.9a4 4 0 10-5 0c.3.3.5.6.5.9h4z"/></symbol>
  <symbol viewBox="0 0 20 20" id="moon"><path d="M17.3 13.3A8 8 0 016.7 2.7a8 8 0 1010.6 10.6z"/></symbol>
  <symbol viewBox="0 0 20 20" id="terminal"><path fill-rule="evenodd" d="M2 5a2 2 0 012-2h12a2 2 0 012 2v10a2 2 0 01-2 2H4a2 2 0 01-2-2V5zm3.293 1.293a1 1 0 011.414 0l3 3a1 1 0 010 1.414l-3 3a1 1 0 01-1.414-1.414L7.586 10 5.293 7.707a1 1 0 010-1.414zM11 12a1 1 0 100 2h3a1 1 0 100-2h-3z" clip-rule="evenodd"/></symbol>
  <symbol viewBox="0 0 24 24" id="github"><path d="M12 .3a12 12 0 00-3.8 23.38c.6.12.83-.26.83-.57L9 21.07c-3.34.72-4.04-1.61-4.04-1.61-.55-1.39-1.34-1.76-1.34-1.76-1.08-.74.09-.73.09-.73 1.2.09 1.83 1.24 1.83 1.24 1.07 1.83 2.81 1.3 3.5 1 .1-.78.42-1.31.76-1.61-2.67-.3-5.47-1.33-5.47-5.93 0-1.31.47-2.38 1.24-3.22-.14-.3-.54-1.52.1-3.18 0 0 1-.32 3.3 1.23a11.5 11.5 0 016 0c2.28-1.55 3.29-1.23 3.29-1.23.64 1.66.24 2.88.12 3.18a4.65 4.65 0 011.23 3.22c0 4.61-2.8 5.63-5.48 5.92.42.36.81 1.1.81 2.22l-.01 3.29c0 .31.2.69.82.57A12 12 0 0012 .3"/></symbol>
  <symbol viewBox="0 0 76.62 65.33" id="linkedin"><path d="M72.86 61.1a1.2 1.2 0 001.21-1.26c0-.9-.54-1.33-1.65-1.33h-1.8v4.71h.67v-2.05h.84l.02.02 1.29 2.03h.72l-1.39-2.1zm-.78-.46h-.78v-1.6h1c.5 0 1.1.09 1.1.76 0 .77-.6.84-1.32.84"/><path d="M55.2 55.2h-9.6V40.17c0-3.58-.06-8.2-4.99-8.2-5 0-5.76 3.9-5.76 7.94v15.3h-9.6V24.28h9.21v4.22h.13a10.1 10.1 0 019.1-5c9.72 0 11.52 6.4 11.52 14.73zM14.41 20.06a5.57 5.57 0 115.57-5.57 5.57 5.57 0 01-5.57 5.57m4.8 35.14h-9.6V24.3h9.6zM60 0H4.78A4.73 4.73 0 000 4.67v55.44a4.73 4.73 0 004.78 4.68h55.21a4.74 4.74 0 004.8-4.68V4.67A4.74 4.74 0 0059.99 0"/><path d="M72.16 56.41a4.42 4.42 0 10.09 0h-.09m0 8.33a3.87 3.87 0 113.81-3.94v.07a3.8 3.8 0 01-3.7 3.87h-.1"/></symbol>
</svg>