<svg xmlns="http://www.w3.org/2000/svg">
  <symbol viewBox="0 0 20 20" id="cog"><path fill-rule="evenodd" d="M11.5 3.2c-.4-1.6-2.6-1.6-3 0a1.5 1.5 0 01-2.3 1c-1.3-1-3 .7-2 2 .5 1 0 2-1 2.3-1.6.4-1.6 2.6 0 3a1.5 1.5 0 011 2.3c-1 1.3.7 3 2 2a1.5 1.5 0 012.3 1c.4 1.6 2.6 1.6 3 0a1.5 1.5 0 012.3-1c1.3 1 3-.7 2-2a1.5 1.5 0 011-2.3c1.6-.4 1.6-2.6 0-3a1.5 1.5 0 01-1-2.3c1-1.3-.7-3-2-2a1.5 1.5 0 01-2.3-1zM10 13a3 3 0 100-6 3 3 0 000 6z" clip-rule="evenodd"/></symbol>
  <symbol viewBox="0 0 20 20" id="library"><path fill-rule="evenodd" d="M10.496 2.132a1 1 0 00-.992 0l-7 4A1 1 0 003 8v7a1 1 0 100 2h14a1 1 0 100-2V8a1 1 0 00.496-1.868l-7-4zM6 9a1 1 0 00-1 1v3a1 1 0 102 0v-3a1 1 0 00-1-1zm3 1a1 1 0 012 0v3a1 1 0 11-2 0v-3zm5-1a1 1 0 00-1 1v3a1 1 0 102 0v-3a1 1 0 00-1-1z" clip-rule="evenodd"/></symbol>
  <symbol viewBox="0 0 20 20" id="light"><path d="M11 3a1 1 0 10-2 0v1a1 1 0 102 0V3zm4.7 2.8a1 1 0 00-1.5-1.5l-.7.8A1 1 0 0015 6.4l.8-.7zM18 10a1 1 0 01-1 1h-1a1 1 0 110-2h1a1 1 0 011 1zM5 6.5A1 1 0 106.6 5l-.7-.7a1 1 0 00-1.5 1.5l.8.7zM5 10a1 1 0 01-1 1H3a1 1 0 110-2h1a1 1 0 011 1zm3 6v-1h4v1a2 2 0 11-4 0zm4-2c0-.3.2-.6.5-.9a4 4 0 10-5 0c.3.3.5.6.5.9h4z"/></symbol>
  <symbol viewBox="0 0 20 20" id="moon"><path d="M17.3 13.3A8 8 0 016.7 2.7a8 8 0 1010.6 10.6z"/></symbol>
  <symbol viewBox="0 0 20 20" id="terminal"><path fill-rule="evenodd" d="M2 5a2 2 0 012-2h12a2 2 0 012 2v10a2 2 0 01-2 2H4a2 2 0 01-2-2V5zm3.293 1.293a1 1 0 011.414 0l3 3a1 1 0 010 1.414l-3 3a1 1 0 01-1.414-1.414L7.586 10 5.293 7.707a1 1 0 010-1.414zM11 12a1 1 0 100 2h3a1 1 0 100-2h-3z" clip-rule="evenodd"/></symbol>
</svg>