<svg version="1" xmlns="http://www.w3.org/2000/svg" width="933.333" height="933.333" viewBox="0 0 700.000000 700.000000"><path d="M337 71.6c-12.9 3.4-24 11.1-30.9 21.3-3.8 5.6-8.4 16.8-9.5 22.9-.8 4.6-5.2 13.9-8.9 18.7-6.8 8.9-16 15.3-26.5 18.5-8.8 2.7-16.5 3.1-25.9 1.3-7.1-1.3-10.3-2.8-24-10.8-12-7-24.4-8.6-37.3-4.9-7.6 2.2-11.9 4.6-18.8 10.3-11.5 9.6-18.4 23.6-18.4 37.6-.1 10 1.9 17 7.3 25.9 7.1 11.8 9.4 20.1 9.3 33.6-.1 24.2-16 43.4-42.8 51.9-10.4 3.3-17.6 7.3-23.7 13.3-12.4 12-17.1 24-16.4 41.8 1 24.7 17.1 43.1 43.5 49.9 19.8 5.1 34 18.5 39.7 37.3.9 3.2 1.6 8.9 1.6 14.3-.1 10.7-2.9 20.2-8.8 29-4.9 7.4-8.2 14.9-9.3 21.1-3.9 22 10.1 46.2 31.8 55 15.7 6.3 30.2 4.9 45-4.7 18.7-11.9 36.6-13.6 54.5-4.9 15.3 7.4 24.6 19.4 29 37.5 4.8 19.5 18.4 34.2 37.5 40.5 5.8 1.9 21 2.2 27.6.5 16.2-4.2 28.6-14.3 35.4-29 2.1-4.4 4.3-10.5 4.9-13.5 3.5-16.8 16.5-31.9 32.6-37.9 7.3-2.8 9.3-3.2 17.1-3.5 11.4-.5 20.6 2.5 35.4 11.5 19.5 11.8 41.6 9.1 59.7-7.4 8.2-7.5 15-22.2 15.6-33.7.6-11-2.2-19.6-10-31.7-10.4-16-11.5-35.2-3.1-52.1 7.3-14.9 18.5-23.7 35.8-28.2 12-3.2 21.3-8.3 28.7-15.7 21.7-22.1 19.7-59.2-4.3-78.6-7.2-5.8-14.1-9.1-24.7-11.7-25.8-6.4-42.4-28.6-41.1-54.8.5-8.6 3.4-16.7 9.8-27.3 3.1-5.2 6.3-11.6 7.1-14.4 5-16.9-.1-35.2-13.5-48.4-17.7-17.6-40.8-20.3-61.7-7.3-4.3 2.6-9.5 5.6-11.6 6.6-8.7 4-22.9 5.1-33.2 2.6-4.9-1.3-13.5-5-15.3-6.7-.7-.7-1.7-1.3-2.1-1.3-1 0-9-7.8-11.9-11.5-4.5-5.7-7.2-12.3-10.2-24-3.7-14.5-15.1-28.6-28.3-34.9-11.6-5.6-25.2-7-36.7-4zm30.9 175.1c43.6 7.5 77.2 41.1 85.5 85.2 1.5 8.1 1.8 27.1.6 32.9-.5 2-1.1 5.3-1.4 7.2-.3 1.9-1.5 6.4-2.7 10-14.3 43.5-53.7 72.5-99.2 72.8-28.1.2-54.2-10.4-73.7-29.8-12.8-12.7-18.5-21.3-25.1-37.5-5.6-14-8.5-40-5.8-52.4.4-2 1-5.2 1.3-7.1.3-1.9 1.5-6.4 2.6-9.8 8.9-27.1 26.8-48.2 52.1-61.5 10.3-5.4 18.8-8.1 35.4-11 5.1-.9 22.8-.4 30.4 1z"/></svg>